<?xml version="1.0" encoding="UTF-8"?>
<svg xmlns="http://www.w3.org/2000/svg" version="1.1" viewBox="0 0 1024 1024">
  <defs>
    <style>
      .cls-1 {
        fill: #45c3e5;
      }
    </style>
  </defs>
  <!-- Generator: Adobe Illustrator 28.7.1, SVG Export Plug-In . SVG Version: 1.2.0 Build 142)  -->
  <g>
    <g id="Layer_1">
      <g id="Layer_1-2" data-name="Layer_1">
        <path class="cls-1" d="M441.8,260.2c1.8-11.9,4.6-23.6,7-35.4,4.2-20.6,5.5-41.8,30.8-46.3,12-.6,24.4,0,36.5,0,18.6,0,41.2-4,51.6,15.9,6.3,12.2,10.9,49.8,15.1,65.8,19.7,4.1,40.3,14,57.9,23.6,11-9.3,43.8-34.3,54.8-38.1,20.5-6.9,33.2,11.6,45.7,24,10.4,10.2,23.5,22.1,32.4,33.4,20.3,25.9-21.7,57.6-32.8,79.7l-.4.8c5.8,18.4,17,35.8,23.6,57.6,18.2,5.1,47.1,6.5,62.7,12.8,23.2,9.4,18.2,36.3,18.2,56.3,0,39,7.1,57-40.7,64.7-13.1,2.1-27.8,3.3-40.3,7.8-8.5,21.1-11.3,35.2-23.6,56.2l19.5,27.8c10.6,15,25.8,30.8,15.3,50.2-3.1,5.8-49.4,52.5-56.6,58.1-14.8,11.7-28.6-1.8-40.8-9.8-13.1-8.5-26.1-17.4-39.5-25.3-19.1,10.1-39.6,14-55.4,22.2-1.5,5.2-2.2,10.7-3.2,16l-5.5,29.4c-3.6,19.5-7.3,35.2-30.6,35.8h-42.1c-19.1,0-38.8,2.1-47.7-19.3-5.2-12.5-7.8-47-10.3-61.9-24.9-5.7-39.5-16-60-22.2-17.3,8.4-43.8,36.8-61.1,38.1-16.8,1.3-25.4-11.9-35.9-22.3-10.1-10.1-30.5-28.1-38-39.4-12.8-19.3,5.1-35.8,16.1-48.9,6.8-8.1,13.4-16.3,20.2-24.3-10.3-19.7-17.8-39-24-60.4-13-2.1-26-4.5-38.9-6.8-52.7-9.4-43.4-24.9-43.4-70.4s-3.9-42.6,18.3-50.8c9.9-3.6,53.5-13,64.1-13.5,4.9-20,13.2-40.1,24-57.6-7.6-6.1-13.2-16.2-19.1-24.1-11.6-15.4-29.5-32.5-17.5-53.1,4-6.9,47.8-50.8,54.3-55.8,25.4-19.5,57.3,18.8,80.9,33.1,18.1-10.4,38.3-18,58.4-23.6h0ZM483.9,201.7c-2.4.1-4.9,0-6.7,1.9-3.2,3.3-8.8,38.9-9.9,44.8-6.8,35.8-.9,28.2-32.8,38.1-19.4,6-39,20.4-53.1,24.3-11-4.1-57.8-44.8-63.1-42.6-3.9,1.6-49.2,45.4-51.5,52.4,4.4,15.3,37.5,44.6,43,63.2-4.3,16-18.9,35.9-25,58.1-6.3,22.7-5.6,18.2-29.1,23.1l-34.8,7.5c-6.4,1.4-13.2,2.4-19.4,4.5-1.2,18.6-1.2,52.7,0,71.2,15.3,4.1,35.6,7.1,51.4,9.8,36.5,6.1,24.3,4.1,36,38.7,3.1,9.2,22.5,43.5,20.9,49-3.7,12.8-45.6,50.7-41.7,58.3,3,5.8,46.3,49,52.4,51.5,7.5-2.9,13.4-8.8,19.8-13.5l25.9-18.9c20.4-15,19.1-8.3,39,1.6,13.5,6.7,27.8,11.9,42.4,15.8,18.9,5,16.1,7.5,18.8,25.7l4.6,31.2c.9,6,1.5,12.3,3,18.2,10,9.9,45.4,5.6,59.9,5.6h15l9.5-50.3c7.3-37.4,3.4-25.9,36-36.6,9.3-3,42.2-20.1,47.8-18.9,11.8,2.4,47.4,31.7,63.4,40.1,5.8-3.2,39.2-38.1,45.6-45.4,8.8-10.1-.2-16.4-6.6-25.1l-18.1-24.9c-18.9-26.1-10.7-21.7,1.5-46.7,5.3-10.8,9.3-22,12.5-33.6,5.8-20.8,7.9-18.8,28.1-22.3,8.3-1.4,51.5-6.1,52.9-12.2,1.2-5.1,1.8-64.8-1.2-68.4-4.3-5.3-58.8-10.6-69.8-15.1-7.6-3.1-19.8-46-25.9-57.8-4.2-8.2-13-16.9-7.7-26.3,5.6-9.9,17.8-26.1,24.9-35.6,21.9-29.3,19.8-20.1-7.9-48.1l-17.6-17.6c-14.5-14.3-13.4-10.2-28.9,1.2-9,6.7-34.4,26.3-43.8,30.4-3.6,1.5-47.9-19.8-57.4-22.6-9-2.7-21.3-2.6-24.7-12.9-3.3-10.2-10-65.4-14.9-69.1-4.4-3.4-53.5-1.9-62.6-1.7h0Z"/>
        <path class="cls-1" d="M522.6,645c-34.6,1-64.7-7-92.4-28.4-95.6-73.9-52-223.7,71.8-238.1,69.8-4.9,134.4,46.4,142.4,116.5,9,78.1-44.7,141.3-121.8,150h0ZM504.8,401.5c-65.8,7.7-109.9,59.3-101.8,126,7.2,58.7,62.5,97.7,119.6,94,62.4-6.6,106-61.3,99-123.5-6.4-56.6-59.9-101-116.8-96.5Z"/>
      </g>
    </g>
  </g>
</svg>