<?xml version="1.0" encoding="UTF-8"?>
<svg xmlns="http://www.w3.org/2000/svg" version="1.1" viewBox="0 0 448 512">
  <defs>
    <style>
      .cls-1 {
        fill: #fff;
      }
    </style>
  </defs>
  <!-- Generator: Adobe Illustrator 28.7.1, SVG Export Plug-In . SVG Version: 1.2.0 Build 142)  -->
  <g>
    <g id="Layer_1">
      <path class="cls-1" d="M224,256c70.7,0,128-57.3,128-128S294.7,0,224,0,96,57.3,96,128s57.3,128,128,128ZM313.6,288h-16.7c-22.2,10.2-46.9,16-72.9,16s-50.6-5.8-72.9-16h-16.7C60.2,288,0,348.2,0,422.4v41.6C0,490.5,21.5,512,48,512h352c26.5,0,48-21.5,48-48v-41.6c0-74.2-60.2-134.4-134.4-134.4Z"/>
    </g>
  </g>
</svg>